<svg width="32" height="32" viewBox="0 0 32 32" fill="none" xmlns="http://www.w3.org/2000/svg">
<path d="M19.6721 30.3695C19.6721 31.2697 20.4025 32.0001 21.3027 32.0001C22.2029 32.0001 22.9333 31.2697 22.9333 30.3695V27.7368H19.6755V30.3695H19.6721Z" fill="#969696"/>
<path d="M19.6721 1.63057V4.26327H22.9299V1.63057C22.9299 0.730362 22.1995 0 21.2993 0C20.3991 0 19.6721 0.730362 19.6721 1.63057Z" fill="#969696"/>
<path d="M14.3694 1.63057V4.26327H17.6305V1.63057C17.6305 0.730362 16.9002 0 16 0C15.0997 0 14.3694 0.730362 14.3694 1.63057Z" fill="#969696"/>
<path d="M14.3694 30.3695C14.3694 31.2697 15.0997 32.0001 16 32.0001C16.9002 32.0001 17.6305 31.2697 17.6305 30.3695V27.7368H14.3694V30.3695Z" fill="#969696"/>
<path d="M9.07007 1.63057V4.26327H12.3278V1.63057C12.3278 0.730362 11.5975 0 10.6972 0C9.79703 0 9.07007 0.730362 9.07007 1.63057Z" fill="#969696"/>
<path d="M9.07007 30.3695C9.07007 31.2697 9.80043 32.0001 10.7006 32.0001C11.6009 32.0001 12.3312 31.2697 12.3312 30.3695V27.7368H9.07007V30.3695Z" fill="#969696"/>
<path d="M0 21.2993C0 22.1995 0.730362 22.9299 1.63057 22.9299H4.26327V19.6721H1.63057C0.730362 19.6721 0 20.3991 0 21.2993Z" fill="#969696"/>
<path d="M30.3695 19.6721H27.7368V22.9299H30.3695C31.2697 22.9299 32.0001 22.1995 32.0001 21.2993C32.0001 20.3991 31.2697 19.6721 30.3695 19.6721Z" fill="#969696"/>
<path d="M0 16C0 16.9002 0.730362 17.6305 1.63057 17.6305H4.26327V14.3694H1.63057C0.730362 14.3694 0 15.0997 0 16Z" fill="#969696"/>
<path d="M30.3695 14.3694H27.7368V17.6305H30.3695C31.2697 17.6305 32.0001 16.9002 32.0001 16C32.0001 15.0997 31.2697 14.3694 30.3695 14.3694Z" fill="#969696"/>
<path d="M0 10.7006C0 11.6009 0.730362 12.3312 1.63057 12.3312H4.26327V9.07007H1.63057C0.730362 9.07007 0 9.80043 0 10.7006Z" fill="#969696"/>
<path d="M30.3695 9.07007H27.7368V12.3278H30.3695C31.2697 12.3278 32.0001 11.5975 32.0001 10.6972C32.0001 9.79703 31.2697 9.07007 30.3695 9.07007Z" fill="#969696"/>
<path d="M5.82935 24.4722C5.82935 25.4098 6.59028 26.1708 7.52786 26.1708H24.4722C25.4098 26.1708 26.1707 25.4098 26.1707 24.4722V7.52786C26.1707 6.59028 25.4098 5.82935 24.4722 5.82935H7.52786C6.59028 5.82935 5.82935 6.59028 5.82935 7.52786V24.4722Z" fill="#969696"/>
<g clip-path="url(#clip0)">
<path d="M18.3036 17.1208C19.7441 15.0867 19.2623 12.2701 17.2282 10.83C15.1942 9.38989 12.3776 9.8713 10.9374 11.9057C9.49731 13.9398 9.97873 16.756 12.0131 18.1962C13.465 19.224 15.3844 19.3032 16.9158 18.3988L20.243 21.7061C20.6023 22.0843 21.2 22.0995 21.5782 21.7402C21.9564 21.3813 21.9715 20.7836 21.6126 20.4054C21.6013 20.3933 21.5902 20.3823 21.5782 20.371L18.3036 17.1208ZM14.6178 17.4291C13.0104 17.4295 11.7072 16.1273 11.7062 14.52C11.7058 12.9126 13.008 11.6094 14.6157 11.6087C16.221 11.6081 17.5235 12.9081 17.5266 14.5134C17.5293 16.1211 16.2279 17.4264 14.6198 17.4291C14.6191 17.4291 14.6188 17.4291 14.6178 17.4291Z" fill="white"/>
</g>
<defs>
<clipPath id="clip0">
<rect width="12" height="12" fill="white" transform="translate(10 10)"/>
</clipPath>
</defs>
</svg>
