<svg width="18" height="19" viewBox="0 0 18 19" fill="none" xmlns="http://www.w3.org/2000/svg">
    <path fill-rule="evenodd" clip-rule="evenodd"
          d="M4.965 8.79245C6.045 10.915 7.785 12.6475 9.9075 13.735L11.5575 12.085C11.76 11.8825 12.06 11.815 12.3225 11.905C13.1625 12.1825 14.07 12.3325 15 12.3325C15.4125 12.3325 15.75 12.67 15.75 13.0825V15.7C15.75 16.1125 15.4125 16.45 15 16.45C7.9575 16.45 2.25 10.7425 2.25 3.69995C2.25 3.28745 2.5875 2.94995 3 2.94995H5.625C6.0375 2.94995 6.375 3.28745 6.375 3.69995C6.375 4.63745 6.525 5.53745 6.8025 6.37745C6.885 6.63995 6.825 6.93245 6.615 7.14245L4.965 8.79245Z"
          fill="#439B24"/>
</svg>
