<svg width="38" height="38" viewBox="0 0 38 38" fill="none" xmlns="http://www.w3.org/2000/svg">
<g clip-path="url(#clip0)">
<path d="M34.0931 7.46939L26.9681 0.344394C26.7441 0.122109 26.4407 -0.0017623 26.125 1.8948e-05H7.125C5.15746 1.8948e-05 3.5625 1.59498 3.5625 3.56252V34.4375C3.5625 36.405 5.15746 38 7.125 38H30.875C32.8425 38 34.4375 36.405 34.4375 34.4375V8.31252C34.4394 7.99686 34.3154 7.69353 34.0931 7.46939ZM32.0625 34.4375C32.0625 35.0934 31.5309 35.625 30.875 35.625H7.125C6.46913 35.625 5.9375 35.0934 5.9375 34.4375V3.56252C5.9375 2.90665 6.46913 2.37502 7.125 2.37502H24.9375V7.12502C24.9375 8.43668 26.0008 9.50002 27.3125 9.50002H32.0625V34.4375Z" fill="#439B24"/>
<path d="M20.1875 16.625H8.3125V19H20.1875V16.625Z" fill="#439B24"/>
<path d="M29.6875 22.5625H8.3125V24.9375H29.6875V22.5625Z" fill="#439B24"/>
<path d="M20.1875 28.5H8.3125V30.875H20.1875V28.5Z" fill="#439B24"/>
</g>
<defs>
<clipPath id="clip0">
<rect width="38" height="38" fill="white"/>
</clipPath>
</defs>
</svg>
