<svg width="38" height="38" viewBox="0 0 38 38" fill="none" xmlns="http://www.w3.org/2000/svg">
<path d="M4.45581 6.68506H6.68415V8.91162H4.45581V6.68506Z" fill="#439B24"/>
<path d="M8.9126 6.68506H11.1409V8.91162H8.9126V6.68506Z" fill="#439B24"/>
<path d="M13.3691 6.68506H15.5975V8.91162H13.3691V6.68506Z" fill="#439B24"/>
<path d="M0 2.22839V35.7717H38V2.22839H0ZM35.7734 4.45496V11.1418H2.22656V4.45496H35.7734ZM2.22656 33.5452V13.3683H35.7734V33.5452H2.22656Z" fill="#439B24"/>
<path d="M12.6265 27.6028H33.5443V29.8293H12.6265V27.6028Z" fill="#439B24"/>
<path d="M4.45581 27.6028H10.3981V29.8293H4.45581V27.6028Z" fill="#439B24"/>
<path d="M18.9999 23.7653C19.6874 23.7653 20.3743 23.5921 20.9909 23.2481L22.9795 25.2368L24.5539 23.6624L22.5653 21.6737C23.4327 20.1192 23.2077 18.1143 21.8881 16.7947C20.2956 15.2023 17.7045 15.2022 16.1119 16.7947C14.5194 18.3872 14.5194 20.9784 16.1119 22.5709C16.9081 23.3672 17.954 23.7653 18.9999 23.7653ZM17.6862 18.3691C18.0484 18.007 18.5242 17.8259 18.9999 17.8259C19.4757 17.8259 19.9515 18.007 20.3137 18.3691C21.0381 19.0935 21.0381 20.2722 20.3137 20.9965C19.5892 21.7209 18.4106 21.7208 17.6863 20.9965C16.9619 20.2721 16.9619 19.0935 17.6862 18.3691Z" fill="#439B24"/>
</svg>
