<svg width="38" height="39" viewBox="0 0 38 39" fill="none" xmlns="http://www.w3.org/2000/svg">
<g clip-path="url(#clip0)">
<path d="M33.0551 27.6323C31.3185 27.6323 29.9056 29.0062 29.9056 30.695C29.9056 32.3835 31.3185 33.7574 33.0551 33.7574C34.792 33.7574 36.2045 32.3835 36.2045 30.695C36.2045 29.0062 34.7917 27.6323 33.0551 27.6323ZM33.0551 32.0397C32.2921 32.0397 31.6717 31.4363 31.6717 30.6947C31.6717 29.9528 32.2921 29.3494 33.0551 29.3494C33.818 29.3494 34.4385 29.953 34.4385 30.6947C34.4385 31.4363 33.818 32.0397 33.0551 32.0397Z" fill="#439B24"/>
<path d="M13.6876 27.6323C11.951 27.6323 10.5382 29.0062 10.5382 30.695C10.5382 32.3835 11.951 33.7574 13.6876 33.7574C15.4242 33.7574 16.8371 32.3835 16.8371 30.695C16.837 29.0062 15.4242 27.6323 13.6876 27.6323ZM13.6876 32.0397C12.9247 32.0397 12.3042 31.4363 12.3042 30.6947C12.3042 29.9528 12.925 29.3494 13.6876 29.3494C14.4506 29.3494 15.071 29.953 15.071 30.6947C15.071 31.4363 14.4506 32.0397 13.6876 32.0397Z" fill="#439B24"/>
<path d="M37.9025 23.5761L35.6361 19.2827C35.4848 18.9962 35.1816 18.8162 34.8505 18.8162H29.6996V20.5335H34.3113L36.2339 24.1758V29.2062H35.2626V30.9236H37.1169C37.6046 30.9236 37.9999 30.5395 37.9999 30.0649V23.9682C37.9999 23.832 37.9666 23.6975 37.9025 23.5761Z" fill="#439B24"/>
<path d="M30.7887 29.2063H21.8408V30.9237H30.7887V29.2063Z" fill="#439B24"/>
<path d="M29.6996 16.5549H10.6265C10.1388 16.5549 9.74353 16.9394 9.74353 17.4136V30.065C9.74353 30.5392 10.1388 30.9236 10.6265 30.9236H11.5096V18.2723H28.8166V30.065H30.5826V17.4136C30.5826 16.9394 30.1873 16.5549 29.6996 16.5549Z" fill="#439B24"/>
<path d="M19.6626 27.6323C17.926 27.6323 16.5132 29.0062 16.5132 30.695C16.5132 32.3835 17.926 33.7574 19.6626 33.7574C21.3992 33.7574 22.812 32.3835 22.812 30.695C22.812 29.0062 21.3992 27.6323 19.6626 27.6323ZM19.6626 32.0397C18.8997 32.0397 18.2792 31.4363 18.2792 30.6947C18.2792 29.9528 18.8997 29.3494 19.6626 29.3494C20.4255 29.3494 21.046 29.953 21.046 30.6947C21.046 31.4363 20.4253 32.0397 19.6626 32.0397Z" fill="#439B24"/>
<path d="M17.514 29.2063H15.8657V30.9237H17.514V29.2063Z" fill="#439B24"/>
<path d="M37.1169 23.1096H29.6996V24.827H37.1169V23.1096Z" fill="#439B24"/>
</g>
<path d="M8.2821 20.8924L12.1795 15.681L19.4872 15.2073L12.6667 20.8924H8.2821Z" fill="white"/>
<path d="M29.9672 10.3186L25.5496 7.57914C25.3953 7.48326 25.216 7.43251 25.0332 7.43251H5.26404L4.25052 4.08664C4.13012 3.6894 3.7553 3.41675 3.3292 3.41675H0.960353C0.429936 3.41675 0 3.83484 0 4.35065V12.3511C0 12.8025 0.332256 13.1897 0.789109 13.2701L10.6807 15.0137C10.7374 15.0236 10.7947 15.0286 10.852 15.0286H28.5545C30.0021 15.0286 31.1795 13.8833 31.1795 12.4759C31.1795 11.6298 30.7211 10.807 29.9672 10.3186ZM28.5545 13.1608H10.9381L1.92071 11.5713V5.2846H2.61086L3.62437 8.63047C3.74477 9.02772 4.11959 9.30037 4.54569 9.30037H24.7531L28.9182 11.8832C29.125 12.0174 29.2588 12.2499 29.2588 12.476C29.2588 12.8597 28.9492 13.1608 28.5545 13.1608Z" fill="#439B24"/>
<path d="M21.3999 7.60008L12.8524 1.09389C12.6834 0.965321 12.475 0.895264 12.2605 0.895264H8.227C7.86588 0.895264 7.53521 1.09264 7.37133 1.4055C7.20746 1.71836 7.23784 2.09441 7.45038 2.3786L12.3161 8.88474C12.4967 9.1263 12.7854 9.26919 13.0928 9.26919H20.8076C21.2174 9.26919 21.582 9.01644 21.7155 8.63975C21.849 8.26311 21.7225 7.84567 21.3999 7.60008ZM13.582 7.40146L10.1128 2.76312H11.9291L18.0229 7.40146H13.582Z" fill="#439B24"/>
<path d="M21.712 13.8734C21.5753 13.5023 21.2135 13.2542 20.8076 13.2542H13.0928C12.7781 13.2542 12.4836 13.4039 12.3041 13.6554L7.43829 20.4726C7.23435 20.7584 7.21072 21.1303 7.37618 21.4382C7.5417 21.7461 7.86951 21.9391 8.22704 21.9391H12.2605C12.4827 21.9391 12.6978 21.8644 12.8694 21.7271L21.4165 14.91C21.7305 14.6597 21.8486 14.2447 21.712 13.8734ZM11.917 20.0713H10.0625L13.5954 15.1219H18.1222L11.917 20.0713Z" fill="#439B24"/>
<defs>
<clipPath id="clip0">
<rect width="28.2564" height="27.4781" fill="white" transform="translate(9.74353 11.4171)"/>
</clipPath>
</defs>
</svg>
