<svg width="193" height="193" viewBox="0 0 193 193" fill="none" xmlns="http://www.w3.org/2000/svg">
<path d="M61.9638 193H33.6571C29.3936 193 25.937 189.544 25.937 185.28V7.72012C25.937 3.45617 29.3936 0 33.6571 0H61.9638V193Z" fill="#39831E"/>
<path d="M169.636 193H61.9634V0H169.636C173.899 0 177.356 3.45617 177.356 7.72012V185.28C177.356 189.543 173.899 193 169.636 193Z" fill="#439B24"/>
<path d="M31.0839 30.0108H20.7908C17.9483 30.0108 15.644 27.7065 15.644 24.864C15.644 22.0215 17.9483 19.7173 20.7908 19.7173H31.0843C33.9268 19.7173 36.231 22.0215 36.231 24.864C36.2306 27.7069 33.9264 30.0108 31.0839 30.0108Z" fill="#64798A"/>
<path d="M31.0839 58.6653H20.7908C17.9483 58.6653 15.644 56.3611 15.644 53.5186C15.644 50.6761 17.9483 48.3718 20.7908 48.3718H31.0843C33.9268 48.3718 36.231 50.6761 36.231 53.5186C36.2306 56.3611 33.9264 58.6653 31.0839 58.6653Z" fill="#64798A"/>
<path d="M31.0839 87.3194H20.7908C17.9483 87.3194 15.644 85.0151 15.644 82.1726C15.644 79.3301 17.9483 77.0259 20.7908 77.0259H31.0843C33.9268 77.0259 36.231 79.3301 36.231 82.1726C36.2306 85.0151 33.9264 87.3194 31.0839 87.3194Z" fill="#64798A"/>
<path d="M31.0839 115.974H20.7908C17.9483 115.974 15.644 113.669 15.644 110.827C15.644 107.984 17.9483 105.68 20.7908 105.68H31.0843C33.9268 105.68 36.231 107.984 36.231 110.827C36.2306 113.669 33.9264 115.974 31.0839 115.974Z" fill="#64798A"/>
<path d="M31.0839 144.628H20.7908C17.9483 144.628 15.644 142.324 15.644 139.481C15.644 136.639 17.9483 134.335 20.7908 134.335H31.0843C33.9268 134.335 36.231 136.639 36.231 139.481C36.2306 142.324 33.9264 144.628 31.0839 144.628Z" fill="#64798A"/>
<path d="M31.0839 173.282H20.7908C17.9483 173.282 15.644 170.978 15.644 168.135C15.644 165.293 17.9483 162.989 20.7908 162.989H31.0843C33.9268 162.989 36.231 165.293 36.231 168.135C36.2306 170.978 33.9264 173.282 31.0839 173.282Z" fill="#64798A"/>
<path d="M154.882 90.8058H84.4378C81.5953 90.8058 79.291 88.5015 79.291 85.659V58.6654C79.291 55.8229 81.5953 53.5187 84.4378 53.5187H154.882C157.725 53.5187 160.029 55.8229 160.029 58.6654V85.659C160.029 88.5015 157.724 90.8058 154.882 90.8058Z" fill="#E1E6E9"/>
<path d="M92.7472 29.6041L86.0191 24.4573L79.291 29.6041V0H92.7472V29.6041Z" fill="#CA3838"/>
<path d="M147.967 74.7354H91.3536C89.9326 74.7354 88.7803 73.583 88.7803 72.162C88.7803 70.741 89.9322 69.5886 91.3536 69.5886H147.967C149.388 69.5886 150.54 70.7405 150.54 72.162C150.54 73.5835 149.388 74.7354 147.967 74.7354Z" fill="#98A9B8"/>
</svg>
