<svg width="181" height="181" viewBox="0 0 181 181" fill="none" xmlns="http://www.w3.org/2000/svg">
<path d="M148.791 26.7848H0V6.81307C0 4.14731 2.16098 1.98633 4.82674 1.98633H143.964C146.63 1.98633 148.791 4.14731 148.791 6.81307V26.7848Z" fill="#3A556A"/>
<path d="M143.964 145.818H4.82674C2.16098 145.818 0 143.657 0 140.991V26.7848H148.791V140.991C148.791 143.657 146.63 145.818 143.964 145.818Z" fill="#E1E6E9"/>
<path d="M16.1185 20.5859C19.5426 20.5859 22.3185 17.8101 22.3185 14.3859C22.3185 10.9618 19.5426 8.18591 16.1185 8.18591C12.6943 8.18591 9.91846 10.9618 9.91846 14.3859C9.91846 17.8101 12.6943 20.5859 16.1185 20.5859Z" fill="#FCD462"/>
<path d="M35.9583 20.5859C39.3825 20.5859 42.1583 17.8101 42.1583 14.3859C42.1583 10.9618 39.3825 8.18591 35.9583 8.18591C32.5341 8.18591 29.7583 10.9618 29.7583 14.3859C29.7583 17.8101 32.5341 20.5859 35.9583 20.5859Z" fill="#27A2DB"/>
<path d="M55.7962 20.5859C59.2204 20.5859 61.9962 17.8101 61.9962 14.3859C61.9962 10.9618 59.2204 8.18591 55.7962 8.18591C52.372 8.18591 49.5962 10.9618 49.5962 14.3859C49.5962 17.8101 52.372 20.5859 55.7962 20.5859Z" fill="#439B24"/>
<path d="M170.012 134.082L181 131.378V117.535L170.011 114.831C168.87 109.645 166.819 104.809 164.047 100.471L169.915 90.7735L160.126 80.9851L150.428 86.8531C146.091 84.0807 141.255 82.031 136.069 80.8896L133.364 69.9004H119.521L116.817 80.8896C111.63 82.031 106.794 84.0814 102.457 86.8539L92.758 80.9863L82.9696 90.775L88.8376 100.473C86.0655 104.811 84.0151 109.646 82.8741 114.832L71.8853 117.537V131.379L82.8741 134.083C84.0155 139.27 86.0655 144.105 88.838 148.443L82.9708 158.141L92.7591 167.929L102.457 162.062C106.794 164.834 111.63 166.885 116.817 168.026L119.521 179.013H133.364L136.068 168.026C141.256 166.885 146.092 164.834 150.43 162.061L160.127 167.928L169.915 158.14L164.047 148.443C166.82 144.105 168.87 139.269 170.012 134.082Z" fill="#439B24"/>
<path d="M126.444 159.174C145.619 159.174 161.163 143.63 161.163 124.456C161.163 105.281 145.619 89.7373 126.444 89.7373C107.27 89.7373 91.7261 105.281 91.7261 124.456C91.7261 143.63 107.27 159.174 126.444 159.174Z" fill="#E1E6E9"/>
<path d="M126.444 144.293C137.4 144.293 146.282 135.412 146.282 124.456C146.282 113.5 137.4 104.618 126.444 104.618C115.488 104.618 106.606 113.5 106.606 124.456C106.606 135.412 115.488 144.293 126.444 144.293Z" fill="#439B24"/>
<path d="M26.7707 66.68L24.2348 72.4413H19.6689L30.8279 47.116H35.3937L46.5527 72.4413H41.9884L39.4513 66.68H26.7707ZM37.7128 62.7321L33.1114 52.2971L28.51 62.7321H37.7128Z" fill="#3A556A"/>
<path d="M67.1694 49.3249C68.9327 50.799 69.8143 53.0694 69.8143 56.1359C69.8143 59.2052 68.9133 61.4524 67.1149 62.8763C65.3149 64.3006 62.5549 65.0141 58.8355 65.0141H54.3435V72.4416H50.0679V47.1163H58.7632C62.6036 47.1163 65.4061 47.8534 67.1694 49.3249ZM64.1442 59.7776C65.0007 58.8724 65.4297 57.5455 65.4297 55.7943C65.4297 54.043 64.8855 52.8042 63.799 52.0791C62.7126 51.3536 61.0096 50.9942 58.6905 50.9942H54.3427V61.1374H59.3066C61.6732 61.1366 63.2861 60.6855 64.1442 59.7776Z" fill="#3A556A"/>
<path d="M74.8496 47.1163H79.1252V72.4416H74.8496V47.1163Z" fill="#3A556A"/>
<path d="M134.311 19.2123H77.1539C74.4881 19.2123 72.3271 17.0513 72.3271 14.3856C72.3271 11.7198 74.4881 9.55884 77.1539 9.55884H134.311C136.976 9.55884 139.137 11.7198 139.137 14.3856C139.137 17.0513 136.976 19.2123 134.311 19.2123Z" fill="#E1E6E9"/>
</svg>
