<svg width="38" height="38" viewBox="0 0 38 38" fill="none" xmlns="http://www.w3.org/2000/svg">
<g clip-path="url(#clip0)">
<path d="M37.841 23.1974L31.4388 12.5263L37.1845 10.9303C37.7769 10.7657 38.1237 10.1521 37.9592 9.55969C37.7946 8.96728 37.1808 8.62038 36.5886 8.785L29.4464 10.7689C29.4459 10.769 29.4454 10.7692 29.4448 10.7693L20.1133 13.3613V1.11353C20.1133 0.498697 19.6149 0.000244141 19 0.000244141C18.3852 0.000244141 17.8868 0.498697 17.8868 1.11353V13.9798L7.98279 16.7308C7.98227 16.7309 7.98175 16.7311 7.98123 16.7312L0.815635 18.7216C0.223146 18.8861 -0.123604 19.4997 0.0408652 20.0922C0.177799 20.5849 0.625264 20.9077 1.11288 20.9077C1.21152 20.9077 1.31186 20.8945 1.41146 20.8668L5.87839 19.6261L0.159096 29.1594C0.0553378 29.3324 0.000415986 29.5304 0.000415986 29.7321C0.000415986 34.2909 3.70935 37.9997 8.26816 37.9997C12.8271 37.9997 16.536 34.2909 16.536 29.7321C16.536 29.5304 16.4811 29.3324 16.3773 29.1594L9.97504 18.4882L27.342 13.6642L21.6227 23.1974C21.519 23.3704 21.464 23.5684 21.464 23.7701C21.464 28.329 25.173 32.0377 29.7318 32.0377C31.9402 32.0377 34.0163 31.1778 35.5781 29.6161C37.1397 28.0545 37.9997 25.9784 37.9995 23.77C37.9997 23.5683 37.9448 23.3703 37.841 23.1974ZM8.26816 35.7732C5.31745 35.7732 2.85517 33.6462 2.33096 30.8453H14.2054C13.6812 33.6462 11.219 35.7732 8.26816 35.7732ZM13.4566 28.6188H3.07983L8.26816 19.9708L13.4566 28.6188ZM29.7318 14.0089L34.9203 22.6568H24.5434L29.7318 14.0089ZM29.7319 29.8112C26.7812 29.8112 24.3189 27.6843 23.7946 24.8834H35.6692C35.1449 27.6843 32.6827 29.8112 29.7319 29.8112Z" fill="#439B24"/>
</g>
<defs>
<clipPath id="clip0">
<rect width="38" height="38" fill="white"/>
</clipPath>
</defs>
</svg>
