<svg width="38" height="38" viewBox="0 0 38 38" fill="none" xmlns="http://www.w3.org/2000/svg">
<g clip-path="url(#clip0)">
<path fill-rule="evenodd" clip-rule="evenodd" d="M12.9512 20.4928C15.0786 20.4928 20.0614 13.3298 20.0614 9.33678C20.0614 5.40985 16.8784 2.22656 12.9512 2.22656C9.02425 2.22656 5.84096 5.40985 5.84096 9.33678C5.84096 12.8027 10.4292 20.4928 12.9512 20.4928ZM12.9512 5.65135C14.9864 5.65135 16.6369 7.30156 16.6369 9.33678C16.6369 11.372 14.9867 13.0225 12.9512 13.0225C10.916 13.0225 9.26575 11.372 9.26575 9.33678C9.26575 7.30156 10.916 5.65135 12.9512 5.65135ZM13.983 8.30496C14.5527 8.87465 14.5527 9.7989 13.983 10.3686C13.0668 11.2847 11.4923 10.6333 11.4923 9.33678C11.4923 8.04027 13.0668 7.38882 13.983 8.30496ZM4.84277 14.1842C6.35179 17.5945 10.0053 22.7193 12.9512 22.7193C15.897 22.7193 19.5506 17.5945 21.0596 14.1842H23.6758V32.3823H11.8767C10.5872 28.5397 5.0863 28.5009 3.78342 32.3823H2.22656V14.1842H4.84277ZM21.8757 11.9576C26.3163 11.9576 25.9023 11.4833 25.9023 15.5552C28.629 15.7967 30.9533 17.2747 32.3689 19.6503L34.5517 23.3134C36.4571 23.3348 38 24.8931 38 26.8014V33.4811C38 34.9048 36.235 34.5943 34.9457 34.5943C34.0278 39.1162 27.4995 39.1162 26.5816 34.5943L12.0092 34.6088C11.0786 39.1118 4.58156 39.1118 3.65092 34.6088H1.11328C0.498367 34.6088 0 34.1105 0 33.4956V13.0709C0 12.456 0.498367 11.9576 1.11328 11.9576H4.02695C2.22627 5.62903 6.96758 0 12.9512 0C18.9348 0 23.6764 5.62903 21.8757 11.9576ZM34.8057 32.3678H35.7734V26.8014C35.7734 26.1079 35.2052 25.5397 34.5117 25.5397H28.9453C27.4795 25.5397 27.4795 23.3131 28.9453 23.3131H31.968C30.4021 20.6856 29.3692 18.1995 25.9023 17.7928V32.3678H26.7219C28.0335 28.5061 33.5063 28.5435 34.8057 32.3678ZM32.2069 32.2976C30.9249 31.0153 28.7227 31.9274 28.7227 33.7408C28.7227 35.5543 30.9249 36.4663 32.2069 35.184C33.0039 34.3871 33.0039 33.0943 32.2069 32.2976ZM5.79515 33.5811C5.71629 35.6262 8.01823 36.4394 9.27328 35.184C10.5556 33.902 9.64351 31.6998 7.83008 31.6998C6.76028 31.6998 5.87691 32.5246 5.79515 33.5811Z" fill="#439B24"/>
</g>
<defs>
<clipPath id="clip0">
<rect width="38" height="38" fill="white"/>
</clipPath>
</defs>
</svg>
