<svg width="64" height="64" viewBox="0 0 64 64" fill="none" xmlns="http://www.w3.org/2000/svg">
<path d="M62 54.0013H34C32.896 54.0013 32 53.1053 32 52.0013C32 50.8973 32 13.1053 32 12.0013C32 10.8973 32.896 10.0013 34 10.0013H62C63.104 10.0013 64 10.8973 64 12.0013V52.0013C64 53.1053 63.104 54.0013 62 54.0013Z" fill="#ECEFF1"/>
<path d="M42 22.0013H34C32.896 22.0013 32 21.1053 32 20.0013C32 18.8973 32.896 18.0013 34 18.0013H42C43.104 18.0013 44 18.8973 44 20.0013C44 21.1053 43.104 22.0013 42 22.0013Z" fill="#439B24"/>
<path d="M42 30.0013H34C32.896 30.0013 32 29.1053 32 28.0013C32 26.8973 32.896 26.0013 34 26.0013H42C43.104 26.0013 44 26.8973 44 28.0013C44 29.1053 43.104 30.0013 42 30.0013Z" fill="#439B24"/>
<path d="M42 38.0013H34C32.896 38.0013 32 37.1053 32 36.0013C32 34.8973 32.896 34.0013 34 34.0013H42C43.104 34.0013 44 34.8973 44 36.0013C44 37.1053 43.104 38.0013 42 38.0013Z" fill="#439B24"/>
<path d="M42 46.0013H34C32.896 46.0013 32 45.1053 32 44.0013C32 42.8973 32.896 42.0013 34 42.0013H42C43.104 42.0013 44 42.8973 44 44.0013C44 45.1053 43.104 46.0013 42 46.0013Z" fill="#439B24"/>
<path d="M54 22.0013H50C48.896 22.0013 48 21.1053 48 20.0013C48 18.8973 48.896 18.0013 50 18.0013H54C55.104 18.0013 56 18.8973 56 20.0013C56 21.1053 55.104 22.0013 54 22.0013Z" fill="#439B24"/>
<path d="M54 30.0013H50C48.896 30.0013 48 29.1053 48 28.0013C48 26.8973 48.896 26.0013 50 26.0013H54C55.104 26.0013 56 26.8973 56 28.0013C56 29.1053 55.104 30.0013 54 30.0013Z" fill="#439B24"/>
<path d="M54 38.0013H50C48.896 38.0013 48 37.1053 48 36.0013C48 34.8973 48.896 34.0013 50 34.0013H54C55.104 34.0013 56 34.8973 56 36.0013C56 37.1053 55.104 38.0013 54 38.0013Z" fill="#439B24"/>
<path d="M54 46.0013H50C48.896 46.0013 48 45.1053 48 44.0013C48 42.8973 48.896 42.0013 50 42.0013H54C55.104 42.0013 56 42.8973 56 44.0013C56 45.1053 55.104 46.0013 54 46.0013Z" fill="#439B24"/>
<path d="M35.276 2.46147C34.82 2.08147 34.208 1.91747 33.632 2.03747L1.632 8.03747C0.684 8.21347 0 9.03747 0 10.0015V54.0015C0 54.9615 0.684 55.7895 1.632 55.9655L33.632 61.9655C33.752 61.9895 33.876 62.0015 34 62.0015C34.464 62.0015 34.916 61.8415 35.276 61.5415C35.736 61.1615 36 60.5935 36 60.0015V4.00147C36 3.40547 35.736 2.84147 35.276 2.46147Z" fill="#439B24"/>
<path d="M27.504 38.6854L21.18 31.4574L27.576 23.2334C28.256 22.3614 28.096 21.1054 27.228 20.4254C26.36 19.7454 25.104 19.9054 24.42 20.7734L18.496 28.3894L13.504 22.6854C12.772 21.8454 11.508 21.7694 10.684 22.4974C9.85201 23.2254 9.76801 24.4894 10.496 25.3174L15.996 31.6054L10.42 38.7734C9.74001 39.6454 9.90001 40.9014 10.768 41.5814C11.136 41.8654 11.572 42.0014 12 42.0014C12.596 42.0014 13.184 41.7374 13.58 41.2294L18.68 34.6694L24.496 41.3134C24.892 41.7694 25.444 42.0014 26 42.0014C26.468 42.0014 26.936 41.8374 27.316 41.5054C28.148 40.7774 28.232 39.5134 27.504 38.6854Z" fill="#FAFAFA"/>
</svg>
