<svg width="38" height="38" viewBox="0 0 38 38" fill="none" xmlns="http://www.w3.org/2000/svg">
<path d="M5.64062 35.6992C8.32883 35.6992 10.5778 33.7838 11.095 31.2461H24.5664V30.1328C24.5664 27.0635 27.0635 24.5664 30.1328 24.5664H31.2461V26.793C28.7906 26.793 26.793 28.7906 26.793 31.2461C26.793 33.7015 28.7906 35.6992 31.2461 35.6992C33.7015 35.6992 35.6992 33.7015 35.6992 31.2461C35.6992 30.4353 35.4803 29.6751 35.1001 29.0195H38V26.793H33.4727V2.30078H31.2461V22.3398H30.1328C29.6799 22.3398 29.236 22.3792 28.8039 22.4537L24.3224 4.52734H8.98047V15.6602H2.22656V25.7155C0.817074 26.7844 0 28.3913 0 30.1328C0 33.2097 2.56307 35.6992 5.64062 35.6992ZM33.4727 31.2461C33.4727 32.4738 32.4738 33.4727 31.2461 33.4727C30.0184 33.4727 29.0195 32.4738 29.0195 31.2461C29.0195 30.0184 30.0184 29.0195 31.2461 29.0195C32.4738 29.0195 33.4727 30.0184 33.4727 31.2461ZM22.5839 6.75391L26.5936 22.7927L22.801 19L24.2404 17.5606L22.666 15.9862L18.2128 20.4393L19.7872 22.0137L21.2266 20.5744L24.9609 24.3088C24.8668 24.3924 24.7747 24.4784 24.6848 24.5664H15.6602C15.6602 22.933 15.6602 12.6305 15.6602 11.207H13.4336V18.5389L11.207 16.3123V6.75391H22.5839ZM4.45312 22.3398H6.75391V20.1133H4.45312V17.8867H9.63263L13.4336 21.6877V26.7922H23.0929C22.763 27.4847 22.5321 28.2336 22.4191 29.0195H11.095C10.5779 26.4818 8.32883 24.5664 5.64062 24.5664C5.2371 24.5664 4.8398 24.6103 4.45312 24.693V22.3398ZM5.64062 26.793C7.48221 26.793 8.98047 28.2912 8.98047 30.1328C8.98047 31.9744 7.48221 33.4727 5.64062 33.4727C3.78998 33.4727 2.22656 31.9432 2.22656 30.1328C2.22656 28.3224 3.78998 26.793 5.64062 26.793Z" fill="#439B24"/>
</svg>
